<svg xmlns="http://www.w3.org/2000/svg" xmlns:xlink="http://www.w3.org/1999/xlink" width="300" zoomAndPan="magnify" viewBox="0 0 224.87999 225" height="300" preserveAspectRatio="xMidYMid meet" version="1.0"><defs><clipPath id="0bb60f81e5"><path d="M 10 8 L 214.640625 8 L 214.640625 224 L 10 224 Z M 10 8 " clip-rule="nonzero"/></clipPath></defs><g clip-path="url(#0bb60f81e5)"><path fill="#312f84" d="M 11.121094 177.351562 L 62.992188 17.824219 C 63.226562 17.097656 63.527344 16.402344 63.886719 15.730469 C 64.246094 15.058594 64.660156 14.425781 65.136719 13.832031 C 65.609375 13.234375 66.128906 12.683594 66.699219 12.179688 C 67.273438 11.679688 67.882812 11.230469 68.535156 10.835938 C 69.183594 10.441406 69.867188 10.109375 70.574219 9.839844 C 71.285156 9.566406 72.015625 9.359375 72.761719 9.21875 C 73.511719 9.078125 74.265625 9.003906 75.023438 8.996094 C 75.785156 8.988281 76.539062 9.050781 77.289062 9.175781 L 203.519531 30.824219 C 203.953125 30.898438 204.382812 30.996094 204.808594 31.113281 C 205.234375 31.230469 205.648438 31.371094 206.058594 31.535156 C 206.46875 31.695312 206.871094 31.878906 207.261719 32.082031 C 207.652344 32.285156 208.03125 32.507812 208.398438 32.753906 C 208.769531 32.996094 209.121094 33.257812 209.464844 33.535156 C 209.804688 33.816406 210.128906 34.113281 210.441406 34.425781 C 210.75 34.738281 211.042969 35.066406 211.320312 35.410156 C 211.597656 35.753906 211.855469 36.109375 212.09375 36.480469 C 212.335938 36.851562 212.554688 37.234375 212.753906 37.625 C 212.953125 38.019531 213.132812 38.421875 213.292969 38.832031 C 213.449219 39.246094 213.585938 39.664062 213.703125 40.089844 C 213.820312 40.515625 213.910156 40.945312 213.980469 41.382812 C 214.054688 41.816406 214.101562 42.253906 214.125 42.695312 C 214.152344 43.136719 214.15625 43.578125 214.136719 44.019531 C 214.113281 44.457031 214.070312 44.898438 214.007812 45.332031 C 213.941406 45.769531 213.855469 46.203125 213.742188 46.628906 L 170.566406 214.097656 C 170.363281 214.890625 170.085938 215.660156 169.734375 216.398438 C 169.378906 217.140625 168.960938 217.839844 168.476562 218.5 C 167.988281 219.160156 167.445312 219.765625 166.839844 220.320312 C 166.238281 220.875 165.585938 221.367188 164.890625 221.796875 C 164.191406 222.226562 163.460938 222.585938 162.691406 222.875 C 161.925781 223.164062 161.140625 223.375 160.332031 223.511719 C 159.523438 223.648438 158.710938 223.707031 157.890625 223.6875 C 157.074219 223.667969 156.261719 223.570312 155.464844 223.394531 L 20.53125 193.800781 C 20.097656 193.707031 19.671875 193.589844 19.246094 193.449219 C 18.824219 193.308594 18.410156 193.144531 18.007812 192.960938 C 17.601562 192.78125 17.207031 192.574219 16.824219 192.351562 C 16.4375 192.125 16.066406 191.882812 15.710938 191.617188 C 15.351562 191.355469 15.007812 191.074219 14.679688 190.773438 C 14.347656 190.472656 14.035156 190.160156 13.738281 189.828125 C 13.445312 189.496094 13.164062 189.148438 12.90625 188.785156 C 12.644531 188.425781 12.40625 188.050781 12.183594 187.664062 C 11.960938 187.277344 11.761719 186.882812 11.582031 186.476562 C 11.402344 186.066406 11.246094 185.652344 11.109375 185.226562 C 10.972656 184.804688 10.859375 184.375 10.765625 183.9375 C 10.675781 183.503906 10.605469 183.0625 10.5625 182.621094 C 10.515625 182.179688 10.492188 181.734375 10.492188 181.289062 C 10.492188 180.84375 10.519531 180.398438 10.566406 179.957031 C 10.613281 179.515625 10.679688 179.074219 10.773438 178.640625 C 10.867188 178.203125 10.980469 177.773438 11.121094 177.351562 Z M 11.121094 177.351562 " fill-opacity="1" fill-rule="nonzero"/></g><path fill="#d2edff" d="M 31.6875 165.925781 L 73.015625 36.277344 C 73.199219 35.691406 73.429688 35.128906 73.710938 34.585938 C 73.996094 34.046875 74.324219 33.53125 74.699219 33.050781 C 75.074219 32.566406 75.488281 32.121094 75.941406 31.714844 C 76.394531 31.304688 76.882812 30.941406 77.402344 30.621094 C 77.921875 30.300781 78.46875 30.03125 79.035156 29.808594 C 79.605469 29.585938 80.1875 29.414062 80.789062 29.296875 C 81.386719 29.179688 81.992188 29.117188 82.601562 29.109375 C 83.214844 29.101562 83.820312 29.148438 84.421875 29.25 L 185 46.839844 C 190.867188 47.867188 194.625 53.796875 193.144531 59.683594 L 158.753906 195.792969 C 158.597656 196.429688 158.382812 197.050781 158.109375 197.648438 C 157.835938 198.246094 157.503906 198.808594 157.121094 199.34375 C 156.734375 199.878906 156.304688 200.371094 155.824219 200.820312 C 155.34375 201.269531 154.828125 201.667969 154.269531 202.019531 C 153.714844 202.367188 153.128906 202.660156 152.515625 202.898438 C 151.902344 203.132812 151.269531 203.308594 150.625 203.421875 C 149.976562 203.535156 149.324219 203.585938 148.667969 203.574219 C 148.011719 203.5625 147.359375 203.488281 146.71875 203.347656 L 39.210938 179.289062 C 33.296875 177.980469 29.828125 171.769531 31.6875 165.925781 Z M 31.6875 165.925781 " fill-opacity="1" fill-rule="nonzero"/><path fill="#8282db" d="M 178.066406 25.527344 L 171.140625 48.078125 C 171.0625 48.339844 170.941406 48.578125 170.773438 48.792969 C 170.609375 49.007812 170.410156 49.1875 170.175781 49.332031 C 169.945312 49.472656 169.695312 49.570312 169.429688 49.621094 C 169.160156 49.671875 168.890625 49.675781 168.625 49.625 L 98.417969 37.355469 C 98.09375 37.300781 97.796875 37.179688 97.523438 36.992188 C 97.253906 36.804688 97.035156 36.566406 96.871094 36.285156 C 96.703125 36 96.605469 35.695312 96.574219 35.367188 C 96.542969 35.039062 96.582031 34.71875 96.691406 34.40625 L 104.835938 10.832031 C 104.925781 10.578125 105.058594 10.34375 105.230469 10.136719 C 105.402344 9.929688 105.609375 9.757812 105.84375 9.625 C 106.078125 9.488281 106.328125 9.402344 106.597656 9.359375 C 106.863281 9.316406 107.128906 9.320312 107.394531 9.375 L 120.925781 12.039062 C 121.355469 12.128906 121.777344 12.089844 122.183594 11.929688 C 122.59375 11.769531 122.921875 11.507812 123.179688 11.152344 C 125.359375 8.054688 132.140625 0.140625 143.234375 2.535156 C 153.796875 4.8125 155.367188 12.769531 155.523438 16.269531 C 155.554688 16.765625 155.730469 17.203125 156.050781 17.582031 C 156.375 17.957031 156.777344 18.203125 157.265625 18.308594 L 176.445312 22.660156 C 176.75 22.730469 177.027344 22.859375 177.277344 23.046875 C 177.527344 23.234375 177.730469 23.464844 177.882812 23.738281 C 178.039062 24.007812 178.128906 24.300781 178.164062 24.613281 C 178.195312 24.921875 178.160156 25.226562 178.066406 25.527344 Z M 178.066406 25.527344 " fill-opacity="1" fill-rule="nonzero"/><path fill="#80b2e8" d="M 152.988281 103.535156 L 137.847656 169.367188 C 137.761719 169.742188 137.640625 170.101562 137.484375 170.453125 C 137.328125 170.804688 137.140625 171.136719 136.917969 171.449219 C 136.695312 171.761719 136.445312 172.050781 136.167969 172.3125 C 135.890625 172.578125 135.589844 172.8125 135.265625 173.015625 C 134.941406 173.21875 134.597656 173.390625 134.242188 173.527344 C 133.882812 173.664062 133.515625 173.765625 133.136719 173.832031 C 132.761719 173.894531 132.378906 173.921875 131.996094 173.914062 C 131.613281 173.902344 131.234375 173.855469 130.859375 173.769531 L 122.597656 171.917969 C 122.214844 171.832031 121.84375 171.710938 121.488281 171.550781 C 121.128906 171.390625 120.792969 171.195312 120.472656 170.96875 C 120.152344 170.738281 119.859375 170.480469 119.59375 170.195312 C 119.328125 169.90625 119.089844 169.597656 118.886719 169.261719 C 118.683594 168.929688 118.511719 168.578125 118.378906 168.207031 C 118.242188 167.839844 118.148438 167.460938 118.089844 167.074219 C 118.03125 166.6875 118.011719 166.296875 118.03125 165.902344 C 118.050781 165.511719 118.109375 165.125 118.207031 164.746094 L 134.988281 98.917969 C 135.085938 98.539062 135.21875 98.171875 135.386719 97.820312 C 135.558594 97.46875 135.761719 97.136719 135.996094 96.824219 C 136.230469 96.511719 136.496094 96.226562 136.789062 95.96875 C 137.082031 95.710938 137.398438 95.480469 137.738281 95.285156 C 138.078125 95.089844 138.429688 94.933594 138.800781 94.808594 C 139.171875 94.683594 139.550781 94.597656 139.9375 94.546875 C 140.328125 94.5 140.714844 94.492188 141.105469 94.519531 C 141.496094 94.550781 141.878906 94.617188 142.253906 94.722656 L 148.847656 96.5625 C 149.207031 96.664062 149.554688 96.796875 149.890625 96.964844 C 150.226562 97.132812 150.542969 97.328125 150.839844 97.554688 C 151.136719 97.785156 151.40625 98.039062 151.65625 98.316406 C 151.90625 98.597656 152.125 98.898438 152.316406 99.21875 C 152.507812 99.539062 152.664062 99.878906 152.792969 100.230469 C 152.917969 100.582031 153.011719 100.941406 153.066406 101.3125 C 153.125 101.683594 153.148438 102.054688 153.132812 102.429688 C 153.121094 102.800781 153.070312 103.171875 152.988281 103.535156 Z M 152.988281 103.535156 " fill-opacity="1" fill-rule="nonzero"/><path fill="#80b2e8" d="M 118.558594 104.558594 L 105.171875 162.058594 C 105.085938 162.433594 104.964844 162.792969 104.804688 163.144531 C 104.648438 163.492188 104.460938 163.824219 104.238281 164.136719 C 104.015625 164.449219 103.765625 164.738281 103.488281 165 C 103.210938 165.261719 102.910156 165.496094 102.585938 165.703125 C 102.261719 165.90625 101.917969 166.078125 101.5625 166.214844 C 101.203125 166.351562 100.835938 166.453125 100.460938 166.515625 C 100.082031 166.582031 99.703125 166.609375 99.320312 166.597656 C 98.9375 166.589844 98.558594 166.542969 98.183594 166.460938 L 91.726562 165.007812 C 91.339844 164.921875 90.96875 164.800781 90.609375 164.640625 C 90.25 164.480469 89.910156 164.289062 89.589844 164.058594 C 89.269531 163.832031 88.976562 163.574219 88.707031 163.285156 C 88.441406 162.996094 88.203125 162.6875 87.996094 162.351562 C 87.792969 162.015625 87.621094 161.660156 87.488281 161.292969 C 87.355469 160.921875 87.257812 160.542969 87.203125 160.152344 C 87.144531 159.761719 87.125 159.371094 87.148438 158.980469 C 87.167969 158.585938 87.230469 158.199219 87.332031 157.816406 L 102.136719 100.367188 C 102.234375 99.992188 102.367188 99.628906 102.539062 99.277344 C 102.710938 98.929688 102.914062 98.597656 103.148438 98.289062 C 103.382812 97.980469 103.648438 97.695312 103.941406 97.4375 C 104.234375 97.183594 104.546875 96.957031 104.882812 96.761719 C 105.222656 96.566406 105.574219 96.40625 105.941406 96.285156 C 106.3125 96.160156 106.6875 96.074219 107.074219 96.023438 C 107.460938 95.972656 107.847656 95.964844 108.234375 95.992188 C 108.621094 96.019531 109.003906 96.085938 109.378906 96.1875 L 114.40625 97.574219 C 114.765625 97.675781 115.117188 97.808594 115.453125 97.972656 C 115.789062 98.140625 116.105469 98.335938 116.402344 98.566406 C 116.699219 98.792969 116.976562 99.046875 117.222656 99.328125 C 117.472656 99.605469 117.695312 99.90625 117.886719 100.230469 C 118.078125 100.554688 118.238281 100.890625 118.363281 101.242188 C 118.492188 101.597656 118.585938 101.960938 118.640625 102.332031 C 118.699219 102.699219 118.722656 103.074219 118.707031 103.449219 C 118.695312 103.824219 118.644531 104.195312 118.558594 104.558594 Z M 118.558594 104.558594 " fill-opacity="1" fill-rule="nonzero"/><path fill="#80b2e8" d="M 86.027344 112.105469 L 74.785156 155.421875 C 74.691406 155.785156 74.5625 156.136719 74.398438 156.476562 C 74.234375 156.816406 74.042969 157.136719 73.816406 157.4375 C 73.59375 157.742188 73.34375 158.019531 73.066406 158.273438 C 72.785156 158.527344 72.488281 158.753906 72.167969 158.949219 C 71.847656 159.144531 71.507812 159.308594 71.15625 159.441406 C 70.804688 159.574219 70.441406 159.671875 70.070312 159.730469 C 69.699219 159.792969 69.328125 159.820312 68.949219 159.808594 C 68.574219 159.800781 68.203125 159.753906 67.835938 159.671875 L 63.5625 158.710938 C 63.171875 158.625 62.796875 158.5 62.429688 158.335938 C 62.066406 158.171875 61.722656 157.972656 61.398438 157.738281 C 61.074219 157.503906 60.777344 157.238281 60.507812 156.941406 C 60.238281 156.648438 60.003906 156.328125 59.800781 155.984375 C 59.59375 155.640625 59.429688 155.277344 59.296875 154.902344 C 59.167969 154.523438 59.078125 154.136719 59.027344 153.738281 C 58.976562 153.34375 58.964844 152.945312 58.996094 152.546875 C 59.027344 152.148438 59.097656 151.753906 59.207031 151.371094 L 71.621094 108.230469 C 71.722656 107.867188 71.859375 107.519531 72.03125 107.1875 C 72.199219 106.851562 72.402344 106.535156 72.632812 106.238281 C 72.863281 105.941406 73.121094 105.671875 73.402344 105.425781 C 73.6875 105.175781 73.992188 104.960938 74.316406 104.769531 C 74.640625 104.582031 74.980469 104.425781 75.335938 104.304688 C 75.691406 104.179688 76.054688 104.09375 76.425781 104.039062 C 76.796875 103.988281 77.167969 103.96875 77.542969 103.988281 C 77.917969 104.007812 78.289062 104.0625 78.652344 104.152344 L 81.769531 104.917969 C 82.148438 105.011719 82.511719 105.140625 82.863281 105.308594 C 83.214844 105.472656 83.546875 105.671875 83.859375 105.902344 C 84.167969 106.132812 84.457031 106.394531 84.714844 106.683594 C 84.976562 106.972656 85.207031 107.285156 85.402344 107.617188 C 85.601562 107.953125 85.765625 108.304688 85.894531 108.671875 C 86.019531 109.039062 86.113281 109.414062 86.164062 109.796875 C 86.21875 110.183594 86.234375 110.570312 86.210938 110.957031 C 86.1875 111.347656 86.125 111.730469 86.027344 112.105469 Z M 86.027344 112.105469 " fill-opacity="1" fill-rule="nonzero"/><path fill="#80b2e8" d="M 166.371094 67.792969 C 166.183594 66.984375 165.726562 66.375 165.007812 65.960938 L 158.277344 62.152344 C 158.125 62.066406 157.960938 62.011719 157.785156 61.992188 C 157.609375 61.96875 157.4375 61.984375 157.269531 62.03125 C 157.097656 62.078125 156.945312 62.15625 156.804688 62.265625 C 156.667969 62.371094 156.554688 62.503906 156.46875 62.65625 C 156.382812 62.8125 156.328125 62.976562 156.304688 63.152344 C 156.285156 63.324219 156.296875 63.5 156.34375 63.667969 C 156.390625 63.839844 156.46875 63.992188 156.578125 64.132812 C 156.6875 64.269531 156.816406 64.382812 156.972656 64.46875 L 161.902344 67.261719 L 76.613281 84.554688 C 76.4375 84.585938 76.277344 84.652344 76.125 84.75 C 75.976562 84.847656 75.851562 84.96875 75.753906 85.117188 C 75.652344 85.265625 75.585938 85.425781 75.550781 85.601562 C 75.515625 85.773438 75.515625 85.949219 75.550781 86.125 C 75.585938 86.300781 75.652344 86.460938 75.753906 86.609375 C 75.855469 86.757812 75.976562 86.878906 76.128906 86.976562 C 76.277344 87.074219 76.441406 87.136719 76.613281 87.167969 C 76.789062 87.203125 76.964844 87.199219 77.140625 87.160156 L 162.886719 69.785156 L 158.785156 75.703125 C 158.683594 75.851562 158.613281 76.007812 158.578125 76.179688 C 158.542969 76.355469 158.539062 76.527344 158.570312 76.699219 C 158.601562 76.875 158.664062 77.035156 158.761719 77.183594 C 158.855469 77.332031 158.976562 77.457031 159.121094 77.554688 C 159.269531 77.65625 159.429688 77.726562 159.601562 77.765625 C 159.863281 77.820312 160.117188 77.796875 160.367188 77.699219 C 160.617188 77.597656 160.816406 77.441406 160.96875 77.222656 L 165.941406 70.039062 C 166.410156 69.355469 166.554688 68.605469 166.371094 67.792969 Z M 166.371094 67.792969 " fill-opacity="1" fill-rule="nonzero"/></svg>